<?xml version="1.0" encoding="utf-8"?>
<!-- Generator: Adobe Illustrator 24.0.0, SVG Export Plug-In . SVG Version: 6.00 Build 0)  -->
<svg version="1.1" id="レイヤー_3" xmlns="http://www.w3.org/2000/svg" xmlns:xlink="http://www.w3.org/1999/xlink" x="0px"
	 y="0px" viewBox="0 0 200 200" style="enable-background:new 0 0 200 200;" xml:space="preserve">
<style type="text/css">
	.st0{fill:#2A8E9D;}
</style>
<g>
	<rect x="-0.5" y="0.5" class="st0" width="202" height="25"/>
	<path class="st0" d="M201,1v24H0V1H201 M202,0H-1v26h203V0L202,0z"/>
</g>
<g>
	<rect x="-0.5" y="174.5" class="st0" width="202" height="25"/>
	<path class="st0" d="M201,175v24H0v-24H201 M202,174H-1v26h203V174L202,174z"/>
</g>
<g>
	<g>
		<polygon class="st0" points="117.52,57.56 191.02,100 117.52,142.44 		"/>
		<path class="st0" d="M118.02,58.43l36,20.78l36,20.78l-36,20.78l-36,20.78V100V58.43 M117.02,56.7V100v43.3l37.5-21.65l37.5-21.65
			l-37.5-21.65L117.02,56.7L117.02,56.7z"/>
	</g>
	<g>
		<polygon class="st0" points="8.98,100 82.48,57.56 82.48,142.44 		"/>
		<path class="st0" d="M81.98,58.43l0,41.57v41.57l-36-20.78L9.98,100l36-20.78L81.98,58.43 M82.98,56.7l-37.5,21.65L7.98,100
			l37.5,21.65l37.5,21.65V100L82.98,56.7L82.98,56.7z"/>
	</g>
</g>
</svg>
