<?xml version="1.0" encoding="utf-8"?>
<!-- Generator: Adobe Illustrator 24.0.0, SVG Export Plug-In . SVG Version: 6.00 Build 0)  -->
<svg version="1.1" id="レイヤー_2" xmlns="http://www.w3.org/2000/svg" xmlns:xlink="http://www.w3.org/1999/xlink" x="0px"
	 y="0px" viewBox="0 0 200 200" style="enable-background:new 0 0 200 200;" xml:space="preserve">
<style type="text/css">
	.st0{fill:#2A8E9D;}
</style>
<g>
	<rect x="0.5" y="0.5" class="st0" width="79" height="84"/>
	<path class="st0" d="M79,1v83H1V1H79 M80,0H0v85h80V0L80,0z"/>
</g>
<g>
	<rect x="0.5" y="115.5" class="st0" width="79" height="84"/>
	<path class="st0" d="M79,116v83H1v-83H79 M80,115H0v85h80V115L80,115z"/>
</g>
<g>
	<rect x="120.5" y="115.5" class="st0" width="79" height="84"/>
	<path class="st0" d="M199,116v83h-78v-83H199 M200,115h-80v85h80V115L200,115z"/>
</g>
<g>
	<rect x="120.5" y="0.5" class="st0" width="79" height="84"/>
	<path class="st0" d="M199,1v83h-78V1H199 M200,0h-80v85h80V0L200,0z"/>
</g>
</svg>
